<svg width="30" height="30" viewBox="0 0 30 30" fill="none" xmlns="http://www.w3.org/2000/svg">
<circle cx="15" cy="15" r="14.25" stroke="white" stroke-width="1.5"/>
<path d="M15 17.3571C16.3018 17.3571 17.3571 16.3018 17.3571 15C17.3571 13.6982 16.3018 12.6429 15 12.6429C13.6982 12.6429 12.6429 13.6982 12.6429 15C12.6429 16.3018 13.6982 17.3571 15 17.3571Z" fill="white"/>
<path fill-rule="evenodd" clip-rule="evenodd" d="M9.5 11.0714C9.5 10.2036 10.2036 9.5 11.0714 9.5H18.9286C19.7964 9.5 20.5 10.2036 20.5 11.0714V18.9286C20.5 19.7964 19.7964 20.5 18.9286 20.5H11.0714C10.2036 20.5 9.5 19.7964 9.5 18.9286V11.0714ZM15 18.1429C16.7358 18.1429 18.1429 16.7358 18.1429 15C18.1429 13.2642 16.7358 11.8571 15 11.8571C13.2642 11.8571 11.8571 13.2642 11.8571 15C11.8571 16.7358 13.2642 18.1429 15 18.1429ZM18.7321 12.25C19.0576 12.25 19.3214 11.9862 19.3214 11.6607C19.3214 11.3353 19.0576 11.0714 18.7321 11.0714C18.4067 11.0714 18.1429 11.3353 18.1429 11.6607C18.1429 11.9862 18.4067 12.25 18.7321 12.25Z" fill="white"/>
</svg>
