<svg width="30" height="30" viewBox="0 0 30 30" fill="none" xmlns="http://www.w3.org/2000/svg">
<circle cx="15" cy="15" r="14.25" stroke="white" stroke-width="1.5"/>
<path d="M12.9604 19.5C17.1104 19.5 19.381 16.0371 19.381 13.035C19.381 12.9376 19.3787 12.8381 19.3743 12.7407C19.8162 12.4191 20.1973 12.0207 20.5 11.5643C20.0886 11.7486 19.6519 11.8689 19.2048 11.9212C19.6757 11.637 20.0281 11.1905 20.197 10.6645C19.7541 10.9289 19.2696 11.1154 18.7645 11.216C18.4242 10.8518 17.9741 10.6107 17.4839 10.5299C16.994 10.4491 16.491 10.5331 16.053 10.769C15.6153 11.0048 15.2668 11.3794 15.0614 11.8347C14.8561 12.2901 14.8054 12.8008 14.9173 13.2881C14.0203 13.2427 13.1428 13.0081 12.3417 12.5994C11.5405 12.1906 10.8335 11.617 10.2668 10.9155C9.97873 11.4156 9.8905 12.0075 10.0202 12.5708C10.1499 13.134 10.4877 13.6264 10.9651 13.9479C10.6066 13.9364 10.2562 13.8393 9.94252 13.6645V13.6926C9.94229 14.2175 10.1224 14.7263 10.4526 15.1325C10.7826 15.5388 11.2424 15.8173 11.7532 15.9209C11.4213 16.0123 11.073 16.0257 10.7352 15.9598C10.8794 16.4112 11.1599 16.806 11.5377 17.0892C11.9154 17.3723 12.3715 17.5296 12.8424 17.5391C12.0431 18.1713 11.0556 18.5143 10.0392 18.5126C9.8591 18.5124 9.67898 18.5012 9.5 18.4793C10.5326 19.1464 11.7337 19.5006 12.9604 19.5Z" fill="white"/>
</svg>
